# xmcd
#
# Track frame offsets:
#	150
#	21940
#	41524
#	56367
#	73042
#	101386
#	115241
#	126833
#	150316
#
# Disc length: 2209 seconds
#
# Revision: 0
# Processed by: cddbd v1.4PL0 Copyright (c) Steve Scherf et al.
# Submitted via: dBpowerAMP V4.0
#
DISCID=6c089f09
DTITLE=Sharon Worth - I Wish You A Rainbow
DYEAR=1900
DGENRE=Christian
TTITLE0=Ten Little Fingers
TTITLE1=I Wish You A Rainbow
TTITLE2=Bachelorhood Is History
TTITLE3=Forever Sue
TTITLE4=Waves
TTITLE5=Passion
TTITLE6=Down With Depression
TTITLE7=Look At You Now
TTITLE8=Twinkle Of Blue Eyes
EXTD=
EXTT0=
EXTT1=
EXTT2=
EXTT3=
EXTT4=
EXTT5=
EXTT6=
EXTT7=
EXTT8=
PLAYORDER=
